<svg width="100" height="84" viewBox="0 0 100 84" fill="none" xmlns="http://www.w3.org/2000/svg">
<path d="M27.1569 3.5H72.8431C73.2561 3.5 73.6508 3.67027 73.9342 3.97067L94.3327 25.593C94.8636 26.1558 94.8794 27.03 94.3692 27.6115L51.1276 76.907C50.5302 77.5881 49.4698 77.5881 48.8724 76.9069L5.63077 27.6115C5.12061 27.0299 5.13644 26.1558 5.66732 25.593L26.0658 3.97067C26.3492 3.67027 26.7439 3.5 27.1569 3.5Z" fill="#D1FFFF" stroke="#76ACB4" stroke-width="7"/>
<line x1="6" y1="27" x2="94" y2="27" stroke="#76ACB4" stroke-width="7"/>
<line x1="28.2798" y1="24.2781" x2="47.2798" y2="75.2781" stroke="#76ACB4" stroke-width="7"/>
<line y1="-3.5" x2="54.4243" y2="-3.5" transform="matrix(-0.349109 0.937082 0.937082 0.349109 74 25.5)" stroke="#76ACB4" stroke-width="7"/>
<line y1="-3.5" x2="29.0689" y2="-3.5" transform="matrix(0.65362 -0.756823 -0.987331 -0.158671 25 25.5)" stroke="#76ACB4" stroke-width="7"/>
<line y1="-3.5" x2="29.0689" y2="-3.5" transform="matrix(-0.65362 -0.756823 0.987331 -0.158671 74 25.5)" stroke="#76ACB4" stroke-width="7"/>
</svg>
