<svg width="274" height="304" viewBox="0 0 274 304" fill="none" xmlns="http://www.w3.org/2000/svg">
<path d="M274 166C274 241.663 212.663 303 137 303C61.337 303 0 241.663 0 166C0 90.337 61.337 29 137 29C212.663 29 274 90.337 274 166Z" fill="#88C3D0"/>
<path d="M274 166.207C274 241.87 212.663 303.207 137 303.207C61.337 303.207 0.5 243.663 0.5 168C0.5 92.3368 13.337 186 89 186C164.663 186 274 90.5438 274 166.207Z" fill="#006C84"/>
<path d="M202.344 149.67H70.9517V186.602H202.344V149.67ZM136.648 141.503C150.497 141.503 161.506 130.139 161.506 116.29C161.506 102.44 150.497 91.4318 136.648 91.4318C122.798 91.4318 111.435 102.44 111.435 116.29C111.435 130.139 122.798 141.503 136.648 141.503ZM136.648 244.841C150.32 244.841 161.506 233.655 161.506 219.628C161.506 205.956 150.32 194.77 136.648 194.77C122.621 194.77 111.435 205.956 111.435 219.628C111.435 233.655 122.621 244.841 136.648 244.841Z" fill="#2B3A3E"/>
</svg>
