<svg width="971" height="980" viewBox="0 0 971 980" fill="none" xmlns="http://www.w3.org/2000/svg">
<path d="M526 470.47C526 615.461 408.251 733 263 733C117.749 733 0 615.461 0 470.47C13.7217 322.084 57.1739 312.952 98.3391 160C301.878 465.904 526 325.479 526 470.47Z" fill="#FF7A00"/>
<path d="M-6.19888e-06 471.682C-6.19888e-06 617.109 117.749 735 263 735C408.251 735 526 617.109 526 471.682C526 309.112 381.922 270.187 263 0C109.774 361.776 -6.19888e-06 326.256 -6.19888e-06 471.682Z" fill="#FF7A00"/>
<path d="M1.37412e-05 470.086C1.37412e-05 615.289 117.749 733 263 733C408.251 733 526 615.289 526 470.086C526 307.766 450.527 218.603 423.078 70C317.887 447.224 1.37412e-05 324.883 1.37412e-05 470.086Z" fill="#FF7A00"/>
<circle cx="261.5" cy="477.5" r="196.5" fill="#FFC700"/>
<path d="M269.077 594.983C318.295 594.983 353.665 568.669 353.771 533.3C353.665 506.027 332.678 483.761 306.47 479.393V477.902C329.268 473.214 345.568 453.506 345.675 429.536C345.568 395.764 313.182 370.835 269.077 370.835C224.865 370.835 192.479 395.764 192.585 429.536C192.479 453.399 208.565 473.214 231.79 477.902V479.393C205.156 483.761 184.382 506.027 184.489 533.3C184.382 568.669 219.858 594.983 269.077 594.983ZM269.077 561.105C247.131 561.105 232.429 548.108 232.429 529.678C232.429 510.821 247.876 497.185 269.077 497.185C290.17 497.185 305.724 510.821 305.724 529.678C305.724 548.214 290.916 561.105 269.077 561.105ZM269.077 463.626C250.646 463.626 237.543 451.588 237.543 434.33C237.543 417.284 250.433 405.565 269.077 405.565C287.614 405.565 300.611 417.391 300.611 434.33C300.611 451.588 287.401 463.626 269.077 463.626Z" fill="#7A330C"/>
<path d="M863.443 593.142L886.412 744.662L461.185 746.198L501.4 349.511L643.587 363.109L863.443 593.142Z" fill="#D1FFFF" stroke="#76ACB4" stroke-width="20"/>
<path d="M880 739.5L512 355" stroke="#76ACB4" stroke-width="20"/>
<path d="M641.665 368.906L633.5 473L756.5 485.5L764 599.5L858.038 589.54" stroke="#76ACB4" stroke-width="20"/>
<path d="M629.499 479L478 732L753 607" stroke="#76ACB4" stroke-width="20"/>
</svg>
