<svg width="73" height="102" viewBox="0 0 73 102" fill="none" xmlns="http://www.w3.org/2000/svg">
<path d="M72.9993 65.0659C72.9993 85.1674 56.6579 101.463 36.4997 101.463C16.3415 101.463 0 85.1674 0 65.0659C1.76839 45.9622 7.09477 43.5068 12.421 26.2732C12.9287 24.6304 15.1622 24.2604 16.1772 25.6483C43.7197 63.3088 72.9993 45.5628 72.9993 65.0659Z" fill="#FF7A00"/>
<path d="M0.000686646 65.4635C0.000686646 85.642 16.3421 102 36.5003 102C56.6585 102 73 85.642 73 65.4635C73 43.7815 54.5262 37.9502 38.4359 4.23757C37.6808 2.6555 35.3657 2.67038 34.6539 4.27237C14.3589 49.9472 0.000686646 45.874 0.000686646 65.4635Z" fill="#FF7A00"/>
<path d="M0.000686646 65.0653C0.000686646 85.1673 16.3421 101.463 36.5003 101.463C56.6585 101.463 73 85.1673 73 65.0653C73 45.8136 65.3124 33.9954 60.714 18.068C60.1262 16.0321 56.7549 15.9068 55.9757 17.8775C39.2785 60.1065 0.000686646 46.0978 0.000686646 65.0653Z" fill="#FF7A00"/>
<path d="M26.052 74.0001C26.052 84.6203 31.2615 89.7053 41.8212 89.7053C52.381 89.7053 60.9414 81.0958 60.9414 70.4756C60.9414 59.3926 53.8986 56.1348 43.9822 39.7398C43.103 38.2861 40.8921 38.4665 40.2628 40.0446C30.8451 63.662 26.052 63.9214 26.052 74.0001Z" fill="#FFC700"/>
<path d="M12 72C12 82.6203 22.9402 89.5 33.5 89.5C50.4074 90.3051 46.6964 88.581 53.9433 69.3513C57.9595 58.6941 36.5205 60.0826 25.0238 42.8396C24.2804 41.7247 22.6769 41.5122 21.797 42.5229C13.7428 51.7747 12 60.7981 12 72Z" fill="#FFC700"/>
</svg>
