<svg width="391" height="510" viewBox="0 0 391 510" fill="none" xmlns="http://www.w3.org/2000/svg">
<path d="M121.98 415C121.98 405.717 118.293 396.815 111.729 390.251C105.165 383.687 96.263 380 86.9805 380C77.6979 380 68.7955 383.687 62.2317 390.251C55.668 396.815 51.9805 405.717 51.9805 415L74.8863 415C74.8863 411.792 76.1605 408.716 78.4286 406.448C80.6967 404.18 83.7729 402.906 86.9805 402.906C90.188 402.906 93.2642 404.18 95.5323 406.448C97.8004 408.716 99.0746 411.792 99.0746 415H121.98Z" fill="#FF7A00"/>
<path d="M99.082 415C99.082 424.283 102.77 433.185 109.333 439.749C115.897 446.313 124.799 450 134.082 450C143.365 450 152.267 446.313 158.831 439.749C165.395 433.185 169.082 424.283 169.082 415L146.176 415C146.176 418.208 144.902 421.284 142.634 423.552C140.366 425.82 137.29 427.094 134.082 427.094C130.874 427.094 127.798 425.82 125.53 423.552C123.262 421.284 121.988 418.208 121.988 415L99.082 415Z" fill="#FF7A00"/>
<path d="M141 410H241L250.5 510H141V410Z" fill="#FF7A00"/>
<path d="M241 410C241 432.091 218.614 450 191 450C163.386 450 141 432.091 141 410C141 387.909 163.386 370 191 370C218.614 370 241 387.909 241 410Z" fill="#FF7A00"/>
<path d="M122 415C122 405.717 118.313 396.815 111.749 390.251C105.185 383.687 96.2826 380 87 380C77.7174 380 68.815 383.687 62.2513 390.251C55.6875 396.815 52 405.717 52 415L74.9058 415C74.9058 411.792 76.18 408.716 78.4481 406.448C80.7162 404.18 83.7924 402.906 87 402.906C90.2076 402.906 93.2838 404.18 95.5519 406.448C97.82 408.716 99.0942 411.792 99.0942 415H122Z" fill="#FF7A00"/>
<path d="M99 415C99 424.283 102.687 433.185 109.251 439.749C115.815 446.313 124.717 450 134 450C143.283 450 152.185 446.313 158.749 439.749C165.313 433.185 169 424.283 169 415L146.094 415C146.094 418.208 144.82 421.284 142.552 423.552C140.284 425.82 137.208 427.094 134 427.094C130.792 427.094 127.716 425.82 125.448 423.552C123.18 421.284 121.906 418.208 121.906 415L99 415Z" fill="#FF7A00"/>
<path d="M266 426C266 435.283 269.687 444.185 276.251 450.749C282.815 457.313 291.717 461 301 461C310.283 461 319.185 457.313 325.749 450.749C332.313 444.185 336 435.283 336 426H313.094C313.094 429.208 311.82 432.284 309.552 434.552C307.284 436.82 304.208 438.094 301 438.094C297.792 438.094 294.716 436.82 292.448 434.552C290.18 432.284 288.906 429.208 288.906 426L266 426Z" fill="#FF7A00"/>
<path d="M288.906 426C288.906 416.717 285.219 407.815 278.655 401.251C272.091 394.687 263.189 391 253.907 391C244.624 391 235.722 394.687 229.158 401.251C222.594 407.815 218.907 416.717 218.907 426H241.812C241.812 422.792 243.087 419.716 245.355 417.448C247.623 415.18 250.699 413.906 253.907 413.906C257.114 413.906 260.19 415.18 262.458 417.448C264.726 419.716 266 422.792 266 426L288.906 426Z" fill="#FF7A00"/>
<circle cx="63.5" cy="414.5" r="11.5" fill="#FFC700"/>
<circle cx="324.5" cy="425.5" r="11.5" fill="#FFC700"/>
<circle cx="195.5" cy="195.5" r="195.5" fill="#FFC700"/>
<circle cx="202.5" cy="254.5" r="11.5" fill="#E79800"/>
<circle cx="266.5" cy="254.5" r="11.5" fill="#E79800"/>
<path d="M212.323 293.679C210.273 293.727 208.623 295.436 208.955 297.459C209.885 303.112 212.626 308.35 216.817 312.353C221.91 317.215 228.725 319.856 235.764 319.694C242.803 319.531 249.489 316.579 254.352 311.487C258.354 307.296 260.851 301.937 261.519 296.247C261.758 294.21 260.031 292.579 257.981 292.626V292.626C255.93 292.674 254.344 294.388 253.994 296.409C253.353 300.123 251.622 303.593 248.981 306.359C245.479 310.026 240.663 312.153 235.593 312.269C230.523 312.386 225.614 310.484 221.946 306.982C219.181 304.341 217.292 300.954 216.479 297.274C216.037 295.272 214.373 293.632 212.323 293.679V293.679Z" fill="#E79800"/>
<path d="M266 424H288.629L288.732 428H266.172L266 424Z" fill="#FF7A00"/>
</svg>
