<svg width="391" height="391" viewBox="0 0 391 391" fill="none" xmlns="http://www.w3.org/2000/svg">
<circle cx="195.5" cy="195.5" r="195.5" fill="#FFC700"/>
<circle cx="202.5" cy="254.5" r="11.5" fill="#E79800"/>
<circle cx="266.5" cy="254.5" r="11.5" fill="#E79800"/>
<path d="M212.323 293.679C210.273 293.727 208.623 295.436 208.955 297.459C209.885 303.112 212.626 308.35 216.817 312.353C221.91 317.215 228.725 319.856 235.764 319.694C242.803 319.531 249.489 316.579 254.352 311.487C258.354 307.296 260.851 301.937 261.519 296.247C261.758 294.21 260.031 292.579 257.981 292.626C255.93 292.674 254.344 294.389 253.994 296.409C253.353 300.123 251.622 303.593 248.981 306.359C245.479 310.026 240.663 312.153 235.593 312.27C230.523 312.386 225.614 310.485 221.946 306.982C219.181 304.342 217.292 300.954 216.479 297.274C216.037 295.272 214.373 293.632 212.323 293.679Z" fill="#E79800"/>
</svg>
