<svg width="985" height="351" viewBox="0 0 985 351" fill="none" xmlns="http://www.w3.org/2000/svg">
<path d="M384.647 67.5H412.041C411.938 46.8004 395.976 33.1037 370.436 33.1037C345.359 33.1037 327.646 46.5945 327.801 66.6761C327.749 83.1534 339.18 92.3189 357.872 96.3352L368.376 98.6009C380.116 101.175 384.132 104.11 384.235 108.899C384.132 114.1 379.395 117.756 370.23 117.756C359.262 117.756 352.774 112.607 352.311 102.926H325.123C325.226 129.393 343.145 141.236 370.642 141.236C397.366 141.236 413.38 129.702 413.483 108.899C413.38 92.8338 403.802 81.5572 380.528 76.5625L371.877 74.7088C361.888 72.5977 357.408 69.6626 357.666 64.6165C357.717 59.9822 361.579 56.5838 370.436 56.5838C379.704 56.5838 384.081 60.6516 384.647 67.5ZM453.208 95.5114C453.26 87.6847 457.688 82.9474 464.742 82.9474C471.9 82.9474 476.122 87.6847 476.07 95.5114V140H504.494V89.5384C504.545 72.3402 493.681 59.8793 476.894 59.8793C465.257 59.8793 456.04 65.9553 452.59 75.9446H451.767V60.9091H424.785V140H453.208V95.5114ZM540.564 141.236C550.862 141.236 558.637 137.734 563.426 128.878H564.044V140H590.613V85.831C590.613 71.2074 576.762 59.8793 554.157 59.8793C530.523 59.8793 518.886 72.2372 517.907 86.6548H544.065C544.734 81.7631 548.339 79.446 553.745 79.446C558.689 79.446 562.19 81.7116 562.19 85.831V86.0369C562.19 90.6197 557.144 92.0614 543.859 93.0398C527.536 94.2241 514.818 100.815 514.818 118.168C514.818 133.924 525.425 141.236 540.564 141.236ZM549.832 123.317C544.992 123.317 541.593 120.948 541.593 116.52C541.593 112.452 544.477 109.311 551.068 108.281C555.599 107.56 559.409 106.634 562.396 105.398V111.989C562.396 119.197 556.268 123.317 549.832 123.317ZM604.194 169.659H632.617V127.024H633.029C636.325 135.057 643.946 141.03 655.068 141.03C671.957 141.03 686.169 127.848 686.169 100.455C686.169 71.8253 670.927 59.8793 655.274 59.8793C643.534 59.8793 636.119 66.6761 633.029 74.7088H632.411V60.9091H604.194V169.659ZM632 100.455C632 88.7145 636.737 81.7116 644.563 81.7116C652.39 81.7116 656.921 88.7145 656.921 100.455C656.921 112.195 652.39 119.197 644.563 119.197C636.737 119.197 632 111.989 632 100.455ZM698.076 169.659H726.499V127.024H726.911C730.207 135.057 737.827 141.03 748.95 141.03C765.839 141.03 780.05 127.848 780.05 100.455C780.05 71.8253 764.809 59.8793 749.156 59.8793C737.415 59.8793 730.001 66.6761 726.911 74.7088H726.293V60.9091H698.076V169.659ZM725.881 100.455C725.881 88.7145 730.619 81.7116 738.445 81.7116C746.272 81.7116 750.803 88.7145 750.803 100.455C750.803 112.195 746.272 119.197 738.445 119.197C730.619 119.197 725.881 111.989 725.881 100.455ZM806.852 169.659C826.727 169.659 836.047 159.67 840.424 146.591L869.259 60.9091H839.394L826.419 115.696H825.595L812.825 60.9091H783.166L810.971 143.501L810.353 144.943C808.448 149.32 802.938 149.165 795.936 146.694L789.757 166.879C794.185 168.629 800.312 169.659 806.852 169.659ZM327.801 209.545V315H355.812V253.622H356.636L380.116 314.176H397.005L420.485 254.034H421.309V315H449.321V209.545H413.689L389.179 269.276H387.943L363.433 209.545H327.801ZM485.339 316.236C495.637 316.236 503.412 312.734 508.201 303.878H508.819V315H535.389V260.831C535.389 246.207 521.537 234.879 498.933 234.879C475.298 234.879 463.661 247.237 462.683 261.655H488.84C489.51 256.763 493.114 254.446 498.521 254.446C503.464 254.446 506.965 256.712 506.965 260.831V261.037C506.965 265.62 501.919 267.061 488.634 268.04C472.312 269.224 459.593 275.815 459.593 293.168C459.593 308.924 470.2 316.236 485.339 316.236ZM494.607 298.317C489.767 298.317 486.369 295.948 486.369 291.52C486.369 287.452 489.252 284.311 495.843 283.281C500.374 282.56 504.185 281.634 507.171 280.398V286.989C507.171 294.197 501.044 298.317 494.607 298.317ZM596.136 235.909H582.542V216.96H554.119V235.909H544.026V256.506H554.119V292.241C553.913 308.821 564.16 317.214 583.778 316.133C590.214 315.772 595.003 314.434 597.578 313.661L593.458 293.683C592.377 293.94 589.596 294.506 587.897 294.506C584.19 294.506 582.542 292.859 582.542 289.563V256.506H596.136V235.909ZM637.857 270.511C637.908 262.685 642.439 257.947 649.391 257.947C656.651 257.947 660.77 262.685 660.719 270.511V315H689.142V264.538C689.194 247.237 678.278 234.879 661.543 234.879C649.854 234.879 641.204 240.852 637.651 250.945H636.827V209.545H609.433V315H637.857V270.511Z" fill="black"/>
<circle cx="143.142" cy="172.004" r="143.142" fill="#FF7A00"/>
<path d="M286.284 172.004C281.582 182.975 306.306 151.63 227.251 151.63C148.196 151.63 0 251.06 0 172.004C0 92.9492 64.0869 28.8623 143.142 28.8623C222.197 28.8623 286.284 92.9492 286.284 172.004Z" fill="#FFC700"/>
</svg>
