<svg width="275" height="303" viewBox="0 0 275 303" fill="none" xmlns="http://www.w3.org/2000/svg">
<path d="M274 161C274 236.663 212.663 298 137 298C61.337 298 0 236.663 0 161C0 85.337 61.337 24 137 24C212.663 24 274 85.337 274 161Z" fill="#B658FF"/>
<path d="M274.001 161.207C274.001 236.87 212.664 298.207 137.001 298.207C61.3384 298.207 -2.27193 238.612 0.501465 163C6.00335 12.9998 93.8423 179 169.505 179C245.168 179 274.001 85.5438 274.001 161.207Z" fill="#8F00FF"/>
<path d="M176.776 238.094L206.605 208.264L166.566 168.225L206.605 128.364L176.776 98.179L136.648 138.307L96.5199 98.179L66.6903 128.364L106.729 168.225L66.6903 208.264L96.5199 238.094L136.648 198.055L176.776 238.094Z" fill="#393040"/>
</svg>
