<svg width="274" height="304" viewBox="0 0 274 304" fill="none" xmlns="http://www.w3.org/2000/svg">
<path d="M274 166C274 241.663 212.663 303 137 303C61.337 303 0 241.663 0 166C0 90.337 61.337 29 137 29C212.663 29 274 90.337 274 166Z" fill="#FF6767"/>
<path d="M274 166.207C274 241.87 212.663 303.207 137 303.207C61.337 303.207 0.5 243.663 0.5 168C0.5 92.3368 13.337 186 89 186C164.663 186 274 90.5438 274 166.207Z" fill="#FF2626"/>
<path d="M116.761 233.832H156.534V188.023H202.344V148.25H156.534V102.44H116.761V148.25H70.9517V188.023H116.761V233.832Z" fill="#730000"/>
</svg>
