<?xml version="1.0" standalone="no"?>
<!DOCTYPE svg PUBLIC "-//W3C//DTD SVG 20010904//EN"
 "http://www.w3.org/TR/2001/REC-SVG-20010904/DTD/svg10.dtd">
<svg version="1.0" xmlns="http://www.w3.org/2000/svg"
 width="700.000000pt" height="700.000000pt" viewBox="0 0 700.000000 700.000000"
 preserveAspectRatio="xMidYMid meet">
<metadata>
Created by potrace 1.11, written by Peter Selinger 2001-2013
</metadata>
<g transform="translate(0.000000,700.000000) scale(0.100000,-0.100000)"
fill="#000000" stroke="none">
<path d="M3200 6990 c-175 -18 -210 -23 -380 -54 -71 -13 -217 -49 -310 -76
-821 -243 -1523 -775 -1981 -1505 -104 -165 -239 -433 -294 -585 -99 -272
-169 -533 -199 -750 -29 -209 -34 -294 -31 -550 2 -140 6 -268 8 -285 3 -16 8
-57 12 -90 10 -93 21 -168 35 -240 6 -27 12 -59 14 -70 15 -76 53 -220 87
-330 209 -668 616 -1258 1169 -1696 312 -247 660 -438 1035 -566 55 -19 107
-36 115 -38 8 -3 58 -16 110 -30 137 -37 344 -79 455 -91 28 -3 61 -7 75 -10
163 -27 635 -21 845 11 22 4 54 9 70 11 17 3 66 12 110 20 44 9 100 20 125 25
25 4 72 15 105 24 33 9 67 18 76 20 8 2 69 21 135 43 429 142 828 365 1168
652 114 96 292 272 371 366 28 32 55 64 62 69 16 14 201 262 215 289 6 11 14
23 17 26 10 8 101 159 148 245 43 77 104 202 144 295 11 25 24 54 29 65 44 98
154 452 176 568 2 12 6 33 9 47 8 37 13 63 19 106 4 22 11 66 16 99 22 145 34
314 34 515 0 140 -10 357 -19 383 -2 6 -6 37 -10 67 -25 233 -106 547 -211
814 -463 1177 -1546 2026 -2789 2186 -44 6 -96 13 -115 16 -57 9 -569 12 -650
4z"/>
</g>
</svg>
