<svg width="959" height="436" viewBox="0 0 959 436" fill="none" xmlns="http://www.w3.org/2000/svg">
<path d="M90.6756 65.1635C100.985 55.1488 135.232 10.9331 151.964 10.0035C162.705 9.40684 126.821 84.5865 124.725 90.3601C99.2349 160.578 78.5419 236.318 47.7733 304.19C37.4576 326.946 36.6272 350.808 11 359.35" stroke="black" stroke-width="20" stroke-linecap="round" stroke-linejoin="round"/>
<path d="M121.32 347.093C137.969 314.461 158.292 297.69 181.247 272.184C183.01 270.226 181.58 254.543 185.674 256.181C192.854 259.053 188.738 292.202 188.738 298.742C188.738 328.138 188.738 357.534 188.738 386.93C188.738 406.808 172.515 369.819 164.223 364.117C109.1 326.22 213.243 328.706 237.429 328.706C263.497 328.706 281.121 316.448 305.187 316.448C322.882 316.448 287.385 324.504 280.331 340.964C277.222 348.218 262.292 357.631 274.543 364.117C282.146 368.142 295.307 365.414 302.463 362.074C337.137 345.893 369.566 324.568 409.378 322.577C425.272 321.782 402.215 335.64 403.249 353.221C404.523 374.878 483.115 334.643 491.437 332.111C507.413 327.249 537.079 306.092 553.066 310.66C562.328 313.306 526.579 337.042 524.465 342.326C502.834 396.403 548.167 369.631 580.987 353.221" stroke="black" stroke-width="20" stroke-linecap="round" stroke-linejoin="round"/>
<path d="M813.886 108.066C798.831 189.362 761.329 264.254 724.676 337.559C718.936 349.039 681.296 410.091 698.799 425.406C710.122 435.314 803.159 240.08 816.61 243.923C826.969 246.883 795.499 358.019 795.499 371.608C795.499 374.402 794.778 405.889 796.861 405.657C814.343 403.715 842.139 295.017 847.254 281.377C864.862 234.423 890.686 198.864 916.715 157.097C917.372 156.042 937.837 113.528 941.911 118.621C958.855 139.8 917.741 179.346 948.721 199.999" stroke="black" stroke-width="20" stroke-linecap="round" stroke-linejoin="round"/>
<path d="M936.464 371.608C902.205 381.029 909.995 409.291 918.077 399.188C924.24 391.485 928.563 382.979 918.077 377.737" stroke="black" stroke-width="20" stroke-linecap="round" stroke-linejoin="round"/>
</svg>
