<svg width="3289" height="1341" viewBox="0 0 3289 1341" fill="none" xmlns="http://www.w3.org/2000/svg">
<rect x="464" width="241" height="124" fill="#EB0000"/>
<rect x="464" width="241" height="124" fill="#EB0000"/>
<path d="M1214.77 292.341H1285.87V477H1349.11V292.341H1420.2V240.636H1214.77V292.341ZM1508.99 377.284C1509.1 359.741 1519.26 349.124 1534.84 349.124C1551.11 349.124 1560.34 359.741 1560.23 377.284V477H1623.94V363.896C1624.05 325.118 1599.58 297.419 1562.07 297.419C1535.88 297.419 1516.49 310.807 1508.52 333.428H1506.68V240.636H1445.28V477H1508.99V377.284ZM1740.33 480.232C1789.49 480.232 1821.12 456.688 1827.12 419.756H1768.95C1765.26 429.797 1754.75 435.452 1741.71 435.452C1722.79 435.452 1711.71 422.987 1711.71 405.906V403.136H1827.12V388.364C1827.12 331.927 1792.49 297.419 1738.94 297.419C1684.01 297.419 1648.92 333.889 1648.92 388.825C1648.92 446.185 1683.55 480.232 1740.33 480.232ZM1711.71 368.051C1712.05 352.701 1724.75 342.199 1740.33 342.199C1756.14 342.199 1768.14 352.817 1768.49 368.051H1711.71ZM1425.74 633.636H1361.58V757.358H1359.73L1275.71 633.636H1221.23V870H1285.4V745.817H1286.79L1372.19 870H1425.74V633.636ZM1571.97 792.443C1572.09 809.986 1561.93 820.604 1546.12 820.604C1530.08 820.604 1520.84 809.986 1520.73 792.443V692.727H1457.02V805.831C1457.14 844.609 1481.6 872.308 1518.88 872.308C1545.31 872.308 1565.62 858.92 1573.36 836.3H1575.2V870H1635.68V692.727H1571.97V792.443ZM1753.02 873.232C1802.19 873.232 1833.81 849.688 1839.81 812.756H1781.65C1777.95 822.797 1767.45 828.452 1754.41 828.452C1735.48 828.452 1724.4 815.987 1724.4 798.906V796.136H1839.81V781.364C1839.81 724.927 1805.19 690.419 1751.64 690.419C1696.7 690.419 1661.62 726.889 1661.62 781.825C1661.62 839.185 1696.24 873.232 1753.02 873.232ZM1724.4 761.051C1724.75 745.701 1737.44 735.199 1753.02 735.199C1768.84 735.199 1780.84 745.817 1781.18 761.051H1724.4ZM1865.81 870H1929.52V777.67C1929.52 757.358 1943.48 743.97 1962.29 743.97C1968.87 743.97 1979.49 745.009 1985.84 747.202V692.843C1980.76 691.342 1975.22 690.419 1969.68 690.419C1950.75 690.419 1935.98 701.499 1929.52 726.428H1927.67V692.727H1865.81V870ZM2070.44 770.284C2070.55 752.741 2080.48 742.124 2096.29 742.124C2112.33 742.124 2121.79 752.741 2121.68 770.284V870H2185.39V756.896C2185.5 718.349 2161.15 690.419 2123.52 690.419C2097.44 690.419 2076.78 704.038 2069.05 726.428H2067.2V692.727H2006.73V870H2070.44V770.284ZM2215.91 870H2279.16V840.916H2280.54C2287.93 858.92 2305.01 872.308 2329.94 872.308C2367.79 872.308 2399.65 842.763 2399.65 781.364C2399.65 717.195 2365.49 690.419 2330.4 690.419C2304.09 690.419 2287.47 705.653 2280.54 723.658H2279.62V633.636H2215.91V870ZM2278.23 781.364C2278.23 755.05 2288.85 739.354 2306.4 739.354C2323.94 739.354 2334.09 755.05 2334.09 781.364C2334.09 807.678 2323.94 823.374 2306.4 823.374C2288.85 823.374 2278.23 807.216 2278.23 781.364ZM2511.25 873.232C2560.42 873.232 2592.04 849.688 2598.04 812.756H2539.87C2536.18 822.797 2525.68 828.452 2512.64 828.452C2493.71 828.452 2482.63 815.987 2482.63 798.906V796.136H2598.04V781.364C2598.04 724.927 2563.42 690.419 2509.87 690.419C2454.93 690.419 2419.84 726.889 2419.84 781.825C2419.84 839.185 2454.47 873.232 2511.25 873.232ZM2482.63 761.051C2482.98 745.701 2495.67 735.199 2511.25 735.199C2527.06 735.199 2539.07 745.817 2539.41 761.051H2482.63ZM2624.04 870H2687.74V777.67C2687.74 757.358 2701.71 743.97 2720.52 743.97C2727.1 743.97 2737.72 745.009 2744.07 747.202V692.843C2738.99 691.342 2733.45 690.419 2727.91 690.419C2708.98 690.419 2694.21 701.499 2687.74 726.428H2685.9V692.727H2624.04V870ZM2840.2 938.324C2896.29 938.324 2933.46 912.702 2933.46 869.538V692.727H2869.75V723.658H2868.36C2861.44 705.653 2844.82 690.419 2818.51 690.419C2783.42 690.419 2749.26 717.195 2749.26 781.364C2749.26 842.763 2781.11 867.692 2818.97 867.692C2842.97 867.692 2861.9 857.536 2868.83 839.531H2870.67V869.538C2870.67 888.581 2858.55 895.391 2842.05 895.391C2827.39 895.391 2816.66 891.005 2814.81 881.541H2753.41C2755.84 913.857 2786.88 938.324 2840.2 938.324ZM2842.51 822.45C2824.97 822.45 2814.81 807.678 2814.81 781.364C2814.81 755.05 2824.97 739.354 2842.51 739.354C2860.05 739.354 2870.67 755.05 2870.67 781.364C2870.67 807.216 2860.05 822.45 2842.51 822.45ZM3050.8 873.232C3099.97 873.232 3131.59 849.688 3137.59 812.756H3079.42C3075.73 822.797 3065.23 828.452 3052.19 828.452C3033.26 828.452 3022.18 815.987 3022.18 798.906V796.136H3137.59V781.364C3137.59 724.927 3102.97 690.419 3049.42 690.419C2994.48 690.419 2959.4 726.889 2959.4 781.825C2959.4 839.185 2994.02 873.232 3050.8 873.232ZM3022.18 761.051C3022.53 745.701 3035.22 735.199 3050.8 735.199C3066.61 735.199 3078.62 745.817 3078.96 761.051H3022.18ZM3163.59 870H3227.3V777.67C3227.3 757.358 3241.26 743.97 3260.07 743.97C3266.65 743.97 3277.27 745.009 3283.62 747.202V692.843C3278.54 691.342 3273 690.419 3267.46 690.419C3248.53 690.419 3233.76 701.499 3227.3 726.428H3225.45V692.727H3163.59V870ZM1285.4 1026.64H1221.23V1263H1285.4V1026.64ZM1380.45 1163.28C1380.56 1145.74 1390.49 1135.12 1406.3 1135.12C1422.34 1135.12 1431.8 1145.74 1431.69 1163.28V1263H1495.4V1149.9C1495.51 1111.35 1471.16 1083.42 1433.53 1083.42C1407.45 1083.42 1386.79 1097.04 1379.06 1119.43H1377.21V1085.73H1316.74V1263H1380.45V1163.28ZM1688.88 1143.43C1687.27 1105.92 1656.11 1083.42 1604.86 1083.42C1554.2 1083.42 1522.92 1104.19 1523.15 1141.12C1522.92 1169.05 1541.04 1186.94 1577.16 1193.29L1608.56 1198.83C1622.41 1201.37 1628.64 1205.06 1628.87 1211.76C1628.64 1219.14 1620.21 1223.3 1608.56 1223.3C1594.13 1223.3 1583.97 1217.07 1582.24 1205.76H1519C1522.46 1242.11 1553.85 1266.23 1608.1 1266.23C1657.15 1266.23 1693.27 1242.34 1693.5 1204.37C1693.27 1178.17 1675.73 1162.94 1639.49 1156.36L1603.48 1149.9C1589.98 1147.47 1586.17 1142.63 1586.4 1137.43C1586.17 1130.05 1595.28 1125.89 1606.25 1125.89C1618.83 1125.89 1629.33 1132.58 1630.25 1143.43H1688.88ZM1823.63 1085.73H1793.16V1043.26H1729.45V1085.73H1706.83V1131.89H1729.45V1211.99C1728.99 1249.15 1751.96 1267.96 1795.93 1265.54C1810.35 1264.73 1821.09 1261.73 1826.86 1260L1817.63 1215.22C1815.2 1215.8 1808.97 1217.07 1805.16 1217.07C1796.85 1217.07 1793.16 1213.37 1793.16 1205.99V1131.89H1823.63V1085.73ZM1849.62 1263H1913.33V1085.73H1849.62V1263ZM1881.48 1067.26C1898.79 1067.26 1912.87 1054.22 1912.87 1038.18C1912.87 1022.14 1898.79 1009.09 1881.48 1009.09C1864.17 1009.09 1850.09 1022.14 1850.09 1038.18C1850.09 1054.22 1864.17 1067.26 1881.48 1067.26ZM2051.51 1085.73H2021.04V1043.26H1957.33V1085.73H1934.71V1131.89H1957.33V1211.99C1956.87 1249.15 1979.84 1267.96 2023.81 1265.54C2038.24 1264.73 2048.97 1261.73 2054.74 1260L2045.51 1215.22C2043.08 1215.8 2036.85 1217.07 2033.04 1217.07C2024.73 1217.07 2021.04 1213.37 2021.04 1205.99V1131.89H2051.51V1085.73ZM2192.45 1185.44C2192.57 1202.99 2182.41 1213.6 2166.6 1213.6C2150.56 1213.6 2141.33 1202.99 2141.21 1185.44V1085.73H2077.5V1198.83C2077.62 1237.61 2102.09 1265.31 2139.37 1265.31C2165.79 1265.31 2186.11 1251.92 2193.84 1229.3H2195.69V1263H2256.16V1085.73H2192.45V1185.44ZM2394.28 1085.73H2363.81V1043.26H2300.11V1085.73H2277.48V1131.89H2300.11V1211.99C2299.64 1249.15 2322.61 1267.96 2366.58 1265.54C2381.01 1264.73 2391.74 1261.73 2397.51 1260L2388.28 1215.22C2385.86 1215.8 2379.62 1217.07 2375.82 1217.07C2367.51 1217.07 2363.81 1213.37 2363.81 1205.99V1131.89H2394.28V1085.73ZM2503.32 1266.23C2552.48 1266.23 2584.11 1242.69 2590.11 1205.76H2531.94C2528.25 1215.8 2517.74 1221.45 2504.7 1221.45C2485.77 1221.45 2474.69 1208.99 2474.69 1191.91V1189.14H2590.11V1174.36C2590.11 1117.93 2555.48 1083.42 2501.93 1083.42C2447 1083.42 2411.91 1119.89 2411.91 1174.83C2411.91 1232.19 2446.53 1266.23 2503.32 1266.23ZM2474.69 1154.05C2475.04 1138.7 2487.74 1128.2 2503.32 1128.2C2519.13 1128.2 2531.13 1138.82 2531.48 1154.05H2474.69Z" fill="black"/>
<rect x="585" y="1063" width="287" height="100" fill="#EB0000"/>
<path d="M785 524C785 444.435 753.393 368.129 697.132 311.868C640.871 255.607 564.565 224 485 224C405.435 224 329.129 255.607 272.868 311.868C216.607 368.129 185 444.435 185 524L785 524Z" fill="#EB0000"/>
<path d="M685 524H785V1063H685V524Z" fill="#EB0000"/>
<path d="M185 524L285 524V1063H185V524Z" fill="#EB0000"/>
<path d="M685 524C685 470.957 663.929 420.086 626.421 382.579C588.914 345.071 538.043 324 485 324C431.957 324 381.086 345.071 343.579 382.579C306.071 420.086 285 470.957 285 524L685 524Z" fill="#FF7A00"/>
<path d="M585 524H685V1063H585V524Z" fill="#FF7A00"/>
<path d="M285 524L385 524V1063H285V524Z" fill="#FF7A00"/>
<rect x="464" width="241" height="124" fill="#EB0000"/>
<path d="M585 1163H969V1263H585V1163Z" fill="#EB0000"/>
<path d="M0 1163H385V1263H0V1163Z" fill="#EB0000"/>
<path d="M97 1063H385V1163H97V1063Z" fill="#EB0000"/>
<rect x="464" width="241" height="124" fill="#EB0000"/>
<path d="M1214.77 292.341H1285.87V477H1349.11V292.341H1420.2V240.636H1214.77V292.341ZM1508.99 377.284C1509.1 359.741 1519.26 349.124 1534.84 349.124C1551.11 349.124 1560.34 359.741 1560.23 377.284V477H1623.94V363.896C1624.05 325.118 1599.58 297.419 1562.07 297.419C1535.88 297.419 1516.49 310.807 1508.52 333.428H1506.68V240.636H1445.28V477H1508.99V377.284ZM1740.33 480.232C1789.49 480.232 1821.12 456.688 1827.12 419.756H1768.95C1765.26 429.797 1754.75 435.452 1741.71 435.452C1722.79 435.452 1711.71 422.987 1711.71 405.906V403.136H1827.12V388.364C1827.12 331.927 1792.49 297.419 1738.94 297.419C1684.01 297.419 1648.92 333.889 1648.92 388.825C1648.92 446.185 1683.55 480.232 1740.33 480.232ZM1711.71 368.051C1712.05 352.701 1724.75 342.199 1740.33 342.199C1756.14 342.199 1768.14 352.817 1768.49 368.051H1711.71ZM1425.74 633.636H1361.58V757.358H1359.73L1275.71 633.636H1221.23V870H1285.4V745.817H1286.79L1372.19 870H1425.74V633.636ZM1571.97 792.443C1572.09 809.986 1561.93 820.604 1546.12 820.604C1530.08 820.604 1520.84 809.986 1520.73 792.443V692.727H1457.02V805.831C1457.14 844.609 1481.6 872.308 1518.88 872.308C1545.31 872.308 1565.62 858.92 1573.36 836.3H1575.2V870H1635.68V692.727H1571.97V792.443ZM1753.02 873.232C1802.19 873.232 1833.81 849.688 1839.81 812.756H1781.65C1777.95 822.797 1767.45 828.452 1754.41 828.452C1735.48 828.452 1724.4 815.987 1724.4 798.906V796.136H1839.81V781.364C1839.81 724.927 1805.19 690.419 1751.64 690.419C1696.7 690.419 1661.62 726.889 1661.62 781.825C1661.62 839.185 1696.24 873.232 1753.02 873.232ZM1724.4 761.051C1724.75 745.701 1737.44 735.199 1753.02 735.199C1768.84 735.199 1780.84 745.817 1781.18 761.051H1724.4ZM1865.81 870H1929.52V777.67C1929.52 757.358 1943.48 743.97 1962.29 743.97C1968.87 743.97 1979.49 745.009 1985.84 747.202V692.843C1980.76 691.342 1975.22 690.419 1969.68 690.419C1950.75 690.419 1935.98 701.499 1929.52 726.428H1927.67V692.727H1865.81V870ZM2070.44 770.284C2070.55 752.741 2080.48 742.124 2096.29 742.124C2112.33 742.124 2121.79 752.741 2121.68 770.284V870H2185.39V756.896C2185.5 718.349 2161.15 690.419 2123.52 690.419C2097.44 690.419 2076.78 704.038 2069.05 726.428H2067.2V692.727H2006.73V870H2070.44V770.284ZM2215.91 870H2279.16V840.916H2280.54C2287.93 858.92 2305.01 872.308 2329.94 872.308C2367.79 872.308 2399.65 842.763 2399.65 781.364C2399.65 717.195 2365.49 690.419 2330.4 690.419C2304.09 690.419 2287.47 705.653 2280.54 723.658H2279.62V633.636H2215.91V870ZM2278.23 781.364C2278.23 755.05 2288.85 739.354 2306.4 739.354C2323.94 739.354 2334.09 755.05 2334.09 781.364C2334.09 807.678 2323.94 823.374 2306.4 823.374C2288.85 823.374 2278.23 807.216 2278.23 781.364ZM2511.25 873.232C2560.42 873.232 2592.04 849.688 2598.04 812.756H2539.87C2536.18 822.797 2525.68 828.452 2512.64 828.452C2493.71 828.452 2482.63 815.987 2482.63 798.906V796.136H2598.04V781.364C2598.04 724.927 2563.42 690.419 2509.87 690.419C2454.93 690.419 2419.84 726.889 2419.84 781.825C2419.84 839.185 2454.47 873.232 2511.25 873.232ZM2482.63 761.051C2482.98 745.701 2495.67 735.199 2511.25 735.199C2527.06 735.199 2539.07 745.817 2539.41 761.051H2482.63ZM2624.04 870H2687.74V777.67C2687.74 757.358 2701.71 743.97 2720.52 743.97C2727.1 743.97 2737.72 745.009 2744.07 747.202V692.843C2738.99 691.342 2733.45 690.419 2727.91 690.419C2708.98 690.419 2694.21 701.499 2687.74 726.428H2685.9V692.727H2624.04V870ZM2840.2 938.324C2896.29 938.324 2933.46 912.702 2933.46 869.538V692.727H2869.75V723.658H2868.36C2861.44 705.653 2844.82 690.419 2818.51 690.419C2783.42 690.419 2749.26 717.195 2749.26 781.364C2749.26 842.763 2781.11 867.692 2818.97 867.692C2842.97 867.692 2861.9 857.536 2868.83 839.531H2870.67V869.538C2870.67 888.581 2858.55 895.391 2842.05 895.391C2827.39 895.391 2816.66 891.005 2814.81 881.541H2753.41C2755.84 913.857 2786.88 938.324 2840.2 938.324ZM2842.51 822.45C2824.97 822.45 2814.81 807.678 2814.81 781.364C2814.81 755.05 2824.97 739.354 2842.51 739.354C2860.05 739.354 2870.67 755.05 2870.67 781.364C2870.67 807.216 2860.05 822.45 2842.51 822.45ZM3050.8 873.232C3099.97 873.232 3131.59 849.688 3137.59 812.756H3079.42C3075.73 822.797 3065.23 828.452 3052.19 828.452C3033.26 828.452 3022.18 815.987 3022.18 798.906V796.136H3137.59V781.364C3137.59 724.927 3102.97 690.419 3049.42 690.419C2994.48 690.419 2959.4 726.889 2959.4 781.825C2959.4 839.185 2994.02 873.232 3050.8 873.232ZM3022.18 761.051C3022.53 745.701 3035.22 735.199 3050.8 735.199C3066.61 735.199 3078.62 745.817 3078.96 761.051H3022.18ZM3163.59 870H3227.3V777.67C3227.3 757.358 3241.26 743.97 3260.07 743.97C3266.65 743.97 3277.27 745.009 3283.62 747.202V692.843C3278.54 691.342 3273 690.419 3267.46 690.419C3248.53 690.419 3233.76 701.499 3227.3 726.428H3225.45V692.727H3163.59V870ZM1285.4 1026.64H1221.23V1263H1285.4V1026.64ZM1380.45 1163.28C1380.56 1145.74 1390.49 1135.12 1406.3 1135.12C1422.34 1135.12 1431.8 1145.74 1431.69 1163.28V1263H1495.4V1149.9C1495.51 1111.35 1471.16 1083.42 1433.53 1083.42C1407.45 1083.42 1386.79 1097.04 1379.06 1119.43H1377.21V1085.73H1316.74V1263H1380.45V1163.28ZM1688.88 1143.43C1687.27 1105.92 1656.11 1083.42 1604.86 1083.42C1554.2 1083.42 1522.92 1104.19 1523.15 1141.12C1522.92 1169.05 1541.04 1186.94 1577.16 1193.29L1608.56 1198.83C1622.41 1201.37 1628.64 1205.06 1628.87 1211.76C1628.64 1219.14 1620.21 1223.3 1608.56 1223.3C1594.13 1223.3 1583.97 1217.07 1582.24 1205.76H1519C1522.46 1242.11 1553.85 1266.23 1608.1 1266.23C1657.15 1266.23 1693.27 1242.34 1693.5 1204.37C1693.27 1178.17 1675.73 1162.94 1639.49 1156.36L1603.48 1149.9C1589.98 1147.47 1586.17 1142.63 1586.4 1137.43C1586.17 1130.05 1595.28 1125.89 1606.25 1125.89C1618.83 1125.89 1629.33 1132.58 1630.25 1143.43H1688.88ZM1823.63 1085.73H1793.16V1043.26H1729.45V1085.73H1706.83V1131.89H1729.45V1211.99C1728.99 1249.15 1751.96 1267.96 1795.93 1265.54C1810.35 1264.73 1821.09 1261.73 1826.86 1260L1817.63 1215.22C1815.2 1215.8 1808.97 1217.07 1805.16 1217.07C1796.85 1217.07 1793.16 1213.37 1793.16 1205.99V1131.89H1823.63V1085.73ZM1849.62 1263H1913.33V1085.73H1849.62V1263ZM1881.48 1067.26C1898.79 1067.26 1912.87 1054.22 1912.87 1038.18C1912.87 1022.14 1898.79 1009.09 1881.48 1009.09C1864.17 1009.09 1850.09 1022.14 1850.09 1038.18C1850.09 1054.22 1864.17 1067.26 1881.48 1067.26ZM2051.51 1085.73H2021.04V1043.26H1957.33V1085.73H1934.71V1131.89H1957.33V1211.99C1956.87 1249.15 1979.84 1267.96 2023.81 1265.54C2038.24 1264.73 2048.97 1261.73 2054.74 1260L2045.51 1215.22C2043.08 1215.8 2036.85 1217.07 2033.04 1217.07C2024.73 1217.07 2021.04 1213.37 2021.04 1205.99V1131.89H2051.51V1085.73ZM2192.45 1185.44C2192.57 1202.99 2182.41 1213.6 2166.6 1213.6C2150.56 1213.6 2141.33 1202.99 2141.21 1185.44V1085.73H2077.5V1198.83C2077.62 1237.61 2102.09 1265.31 2139.37 1265.31C2165.79 1265.31 2186.11 1251.92 2193.84 1229.3H2195.69V1263H2256.16V1085.73H2192.45V1185.44ZM2394.28 1085.73H2363.81V1043.26H2300.11V1085.73H2277.48V1131.89H2300.11V1211.99C2299.64 1249.15 2322.61 1267.96 2366.58 1265.54C2381.01 1264.73 2391.74 1261.73 2397.51 1260L2388.28 1215.22C2385.86 1215.8 2379.62 1217.07 2375.82 1217.07C2367.51 1217.07 2363.81 1213.37 2363.81 1205.99V1131.89H2394.28V1085.73ZM2503.32 1266.23C2552.48 1266.23 2584.11 1242.69 2590.11 1205.76H2531.94C2528.25 1215.8 2517.74 1221.45 2504.7 1221.45C2485.77 1221.45 2474.69 1208.99 2474.69 1191.91V1189.14H2590.11V1174.36C2590.11 1117.93 2555.48 1083.42 2501.93 1083.42C2447 1083.42 2411.91 1119.89 2411.91 1174.83C2411.91 1232.19 2446.53 1266.23 2503.32 1266.23ZM2474.69 1154.05C2475.04 1138.7 2487.74 1128.2 2503.32 1128.2C2519.13 1128.2 2531.13 1138.82 2531.48 1154.05H2474.69Z" fill="black"/>
<path d="M585 524C585 579.228 540.228 624 485 624C429.772 624 385 579.228 385 524C385 468.772 429.772 424 485 424C540.228 424 585 468.772 585 524Z" fill="#FFC700"/>
<path d="M385 524H585V1263H385V524Z" fill="#FFC700"/>
<rect x="585" y="522" width="100" height="3" fill="#FF7A00"/>
<rect x="685" y="522" width="100" height="3" fill="#EB0000"/>
<rect x="185" y="522" width="100" height="3" fill="#EB0000"/>
<rect x="285" y="522" width="100" height="3" fill="#FF7A00"/>
<rect x="385" y="522" width="200" height="3" fill="#FFC700"/>
</svg>
